<svg width="40" height="40" viewBox="0 0 40 40" fill="none" xmlns="http://www.w3.org/2000/svg">
<g clip-path="url(#clip0_270_9)">
<path fill-rule="evenodd" clip-rule="evenodd" d="M39.0833 9.91337C39.36 9.00337 39.0833 8.33337 37.7583 8.33337H33.3833C32.27 8.33337 31.7567 8.91171 31.4783 9.55004C31.4783 9.55004 29.2533 14.8767 26.1017 18.3367C25.0817 19.34 24.6183 19.6584 24.0617 19.6584C23.7833 19.6584 23.365 19.34 23.365 18.4284V9.91337C23.365 8.82004 23.0583 8.33337 22.1317 8.33337H15.2517C14.5567 8.33337 14.1383 8.84004 14.1383 9.32171C14.1383 10.3567 15.715 10.5967 15.8767 13.51V19.84C15.8767 21.2284 15.6217 21.48 15.065 21.48C13.5817 21.48 9.97333 16.1284 7.83167 10.005C7.41667 8.81337 6.99667 8.33337 5.87833 8.33337H1.5C0.25 8.33337 0 8.91171 0 9.55004C0 10.6867 1.48333 16.3334 6.90833 23.8017C10.525 28.9017 15.6167 31.6667 20.255 31.6667C23.0367 31.6667 23.38 31.0534 23.38 29.995V26.14C23.38 24.9117 23.6433 24.6667 24.525 24.6667C25.175 24.6667 26.2867 24.9867 28.8833 27.445C31.85 30.36 32.3383 31.6667 34.0083 31.6667H38.3833C39.6333 31.6667 40.26 31.0534 39.9 29.84C39.5033 28.6334 38.0867 26.8817 36.2083 24.8034C35.1883 23.62 33.6583 22.345 33.1933 21.7067C32.545 20.8884 32.73 20.5234 33.1933 19.795C33.1933 19.795 38.5267 12.4184 39.0817 9.91337" fill="#F8F8F8"/>
</g>
<defs>
<clipPath id="clip0_270_9">
<rect width="40" height="40" fill="white"/>
</clipPath>
</defs>
</svg>
