<svg width="40" height="40" viewBox="0 0 40 40" fill="none" xmlns="http://www.w3.org/2000/svg">
<path d="M25.3633 28.2274L23.6133 23.8108M32.0833 4.58325H7.91659C7.03253 4.58325 6.18468 4.93444 5.55956 5.55956C4.93444 6.18468 4.58325 7.03253 4.58325 7.91659V32.0833C4.58325 32.9673 4.93444 33.8152 5.55956 34.4403C6.18468 35.0654 7.03253 35.4166 7.91659 35.4166H32.0833C32.9673 35.4166 33.8152 35.0654 34.4403 34.4403C35.0654 33.8152 35.4166 32.9673 35.4166 32.0833V7.91659C35.4166 7.03253 35.0654 6.18468 34.4403 5.55956C33.8152 4.93444 32.9673 4.58325 32.0833 4.58325Z" stroke="black" stroke-width="0.833333" stroke-linecap="round" stroke-linejoin="round"/>
<path d="M26.9466 23.8108L24.8632 29.8108C24.6966 30.2275 24.3632 30.4775 23.9466 30.4775H23.6966M21.9999 26.5191C21.9999 27.4358 21.2499 28.1858 20.3332 28.1858C19.4166 28.1858 18.6666 27.4358 18.6666 26.5191V25.4358C18.6666 24.5191 19.4166 23.7691 20.3332 23.7691C21.2499 23.7691 21.9999 24.5191 21.9999 25.4358M21.9999 28.1858V23.7691M13.0532 28.1858V21.5191H15.2199C16.4699 21.5191 17.4699 22.5191 17.4699 23.7691C17.4699 25.0191 16.4699 26.0191 15.2199 26.0191H13.0532M24.8799 19.4766V9.52246H28.1149C29.9816 9.52246 31.4749 11.015 31.4749 12.8816C31.4749 14.7483 29.9816 16.2416 28.1149 16.2416H24.8799M28.3182 16.2375L31.4749 19.4766M21.6799 9.52246V19.4766M8.5249 19.4766V9.52246L13.5024 19.4766L18.4791 9.52246V19.4766" stroke="black" stroke-width="0.833333" stroke-linecap="round" stroke-linejoin="round"/>
</svg>
