<svg width="20" height="20" viewBox="0 0 20 20" fill="none" xmlns="http://www.w3.org/2000/svg">
<path d="M10 0C8.02219 0 6.08879 0.58649 4.4443 1.6853C2.79981 2.78412 1.51809 4.3459 0.761209 6.17316C0.00433284 8.00042 -0.1937 10.0111 0.192152 11.9509C0.578004 13.8907 1.53041 15.6725 2.92894 17.0711C4.32746 18.4696 6.10929 19.422 8.0491 19.8078C9.98891 20.1937 11.9996 19.9957 13.8268 19.2388C15.6541 18.4819 17.2159 17.2002 18.3147 15.5557C19.4135 13.9112 20 11.9778 20 10C19.9972 7.34869 18.9427 4.80678 17.068 2.93202C15.1932 1.05727 12.6513 0.00279983 10 0ZM10.7692 3.78654L13.1529 2.14711C14.5176 2.69683 15.7164 3.59138 16.6317 4.74327L15.8625 7.33365C15.8433 7.33365 15.8231 7.34327 15.8038 7.35L13.6096 8.0625C13.5767 8.07314 13.5446 8.08599 13.5135 8.10096L10.7692 6.21346V3.78654ZM6.85 2.14711L9.23077 3.78654V6.21346L6.48462 8.10481C6.45347 8.08984 6.42134 8.07699 6.38846 8.06634L4.19423 7.35385C4.175 7.34711 4.15481 7.34231 4.13558 7.3375L3.36635 4.74711C4.28258 3.59315 5.48306 2.69719 6.85 2.14711ZM5.6 14.5596H2.875C2.07734 13.3194 1.62004 11.8911 1.54904 10.4183L3.66443 8.79519C3.68264 8.8032 3.70125 8.81026 3.7202 8.81634L5.91539 9.52981C5.94475 9.53863 5.97461 9.5457 6.00481 9.55096L7.04231 12.5721C7.02789 12.5894 7.01346 12.6067 7 12.625L5.64423 14.4913C5.6283 14.5133 5.61353 14.5361 5.6 14.5596ZM12.1817 18.1731C10.7522 18.5538 9.24784 18.5538 7.81827 18.1731L6.85096 15.4423C6.86346 15.4269 6.87693 15.4125 6.88846 15.3961L8.2452 13.5288C8.2611 13.5072 8.27587 13.4847 8.28943 13.4615H11.7106C11.7241 13.4847 11.7389 13.5072 11.7548 13.5288L13.1115 15.3961C13.1231 15.4125 13.1365 15.4269 13.149 15.4423L12.1817 18.1731ZM14.4 14.5567C14.3865 14.5332 14.3717 14.5104 14.3558 14.4885L12.999 12.625C12.9856 12.6067 12.9712 12.5894 12.9567 12.5721L13.9942 9.55096C14.0244 9.5457 14.0543 9.53863 14.0837 9.52981L16.2788 8.81634C16.2978 8.81026 16.3164 8.8032 16.3346 8.79519L18.45 10.4183C18.379 11.8911 17.9217 13.3194 17.124 14.5596L14.4 14.5567Z" fill="#F8F8F8"/>
</svg>
