<svg width="81" height="59" viewBox="0 0 81 59" fill="none" xmlns="http://www.w3.org/2000/svg">
<rect y="12" width="81" height="43" rx="5" fill="white"/>
<path d="M34.6836 20.5273V48H29.9863V20.5273H34.6836ZM52.7109 20.5273L39.6855 36.2695H33.1094L32.3984 32.1562H37.7812L46.998 20.5273H52.7109ZM47.6582 48L37.5527 35.5586L40.5742 32.1562L53.625 48H47.6582Z" fill="#DC052D"/>
<path d="M52 31C52 30.4477 52.4477 30 53 30H58C58.5523 30 59 30.4477 59 31V36C59 36.5523 58.5523 37 58 37H53C52.4477 37 52 36.5523 52 36V31Z" fill="#DC052D"/>
<rect x="18" y="30" width="7" height="7" rx="1" fill="#DC052D"/>
</svg>
