<svg width="30" height="30" viewBox="0 0 30 30" fill="none" xmlns="http://www.w3.org/2000/svg">
<path d="M16.4233 0.833334C16.2815 0.580415 16.0749 0.369837 15.8247 0.223273C15.5746 0.0767084 15.2899 -0.000549316 14.9999 -0.000549316C14.71 -0.000549316 14.4253 0.0767084 14.1751 0.223273C13.9249 0.369837 13.7184 0.580415 13.5766 0.833334C12.1817 3.36273 11.0337 6.02055 10.1483 8.77C9.91659 9.48833 9.22993 9.98667 8.44326 10.0083C6.05862 10.071 3.68175 10.3078 1.33159 10.7167C0.0415937 10.9433 -0.443407 12.4133 0.47326 13.31C2.25114 15.0493 4.15037 16.66 6.15659 18.13C6.76826 18.5783 7.01993 19.3467 6.78659 20.05C5.89775 22.7218 5.26162 25.471 4.88659 28.2617C4.71993 29.52 6.06659 30.4083 7.23659 29.8083C9.55666 28.6187 11.7752 27.2408 13.8699 25.6883C14.198 25.4489 14.5937 25.3198 14.9999 25.3198C15.4061 25.3198 15.8018 25.4489 16.1299 25.6883C18.2242 27.2414 20.4428 28.6194 22.7633 29.8083C23.9316 30.4083 25.2799 29.52 25.1133 28.2617C24.7383 25.4705 24.1022 22.7206 23.2133 20.0483C22.9799 19.3483 23.2299 18.5783 23.8433 18.13C25.8495 16.66 27.7487 15.0493 29.5266 13.31C30.4433 12.4133 29.9599 10.9433 28.6683 10.7167C26.3184 10.3054 23.9414 10.0686 21.5566 10.0083C21.1795 10.0023 20.8135 9.88021 20.5084 9.6586C20.2033 9.437 19.9739 9.1267 19.8516 8.77C18.9661 6.02112 17.818 3.3622 16.4233 0.833334Z" fill="#F7FF00"/>
</svg>
