<svg width="34" height="34" viewBox="0 0 34 34" fill="none" xmlns="http://www.w3.org/2000/svg">
<g clip-path="url(#clip0_280_9)">
<path d="M18.4233 2.83339C18.2815 2.58047 18.0749 2.3699 17.8247 2.22333C17.5746 2.07677 17.2899 1.99951 16.9999 1.99951C16.71 1.99951 16.4253 2.07677 16.1751 2.22333C15.9249 2.3699 15.7184 2.58047 15.5766 2.83339C14.1817 5.36279 13.0337 8.02061 12.1483 10.7701C11.9166 11.4884 11.2299 11.9868 10.4433 12.0084C8.05862 12.0711 5.68175 12.3079 3.33159 12.7168C2.04159 12.9434 1.55659 14.4134 2.47326 15.3101C4.25114 17.0494 6.15037 18.6601 8.15659 20.1301C8.76826 20.5784 9.01993 21.3468 8.78659 22.0501C7.89775 24.7219 7.26162 27.4711 6.88659 30.2618C6.71993 31.5201 8.06659 32.4084 9.23659 31.8084C11.5567 30.6188 13.7752 29.2409 15.8699 27.6884C16.198 27.449 16.5937 27.3199 16.9999 27.3199C17.4061 27.3199 17.8018 27.449 18.1299 27.6884C20.2242 29.2415 22.4428 30.6195 24.7633 31.8084C25.9316 32.4084 27.2799 31.5201 27.1133 30.2618C26.7383 27.4706 26.1022 24.7207 25.2133 22.0484C24.9799 21.3484 25.2299 20.5784 25.8433 20.1301C27.8495 18.6601 29.7487 17.0494 31.5266 15.3101C32.4433 14.4134 31.9599 12.9434 30.6683 12.7168C28.3184 12.3055 25.9414 12.0687 23.5566 12.0084C23.1795 12.0024 22.8135 11.8803 22.5084 11.6587C22.2033 11.4371 21.9739 11.1268 21.8516 10.7701C20.9661 8.02118 19.818 5.36226 18.4233 2.83339Z" fill="#D6CA43" stroke="#D6CA43" stroke-width="2.5" stroke-linecap="round" stroke-linejoin="round"/>
</g>
<defs>
<clipPath id="clip0_280_9">
<rect width="34" height="34" fill="white"/>
</clipPath>
</defs>
</svg>
