<svg width="34" height="34" viewBox="0 0 34 34" fill="none" xmlns="http://www.w3.org/2000/svg">
<path d="M18.4233 2.83333C18.2815 2.58041 18.0749 2.36984 17.8247 2.22327C17.5746 2.07671 17.2899 1.99945 16.9999 1.99945C16.71 1.99945 16.4253 2.07671 16.1751 2.22327C15.9249 2.36984 15.7184 2.58041 15.5766 2.83333C14.1817 5.36273 13.0337 8.02055 12.1483 10.77C11.9166 11.4883 11.2299 11.9867 10.4433 12.0083C8.05862 12.071 5.68175 12.3078 3.33159 12.7167C2.04159 12.9433 1.55659 14.4133 2.47326 15.31C4.25114 17.0493 6.15037 18.66 8.15659 20.13C8.76826 20.5783 9.01993 21.3467 8.78659 22.05C7.89775 24.7218 7.26162 27.471 6.88659 30.2617C6.71993 31.52 8.06659 32.4083 9.23659 31.8083C11.5567 30.6187 13.7752 29.2408 15.8699 27.6883C16.198 27.4489 16.5937 27.3198 16.9999 27.3198C17.4061 27.3198 17.8018 27.4489 18.1299 27.6883C20.2242 29.2414 22.4428 30.6194 24.7633 31.8083C25.9316 32.4083 27.2799 31.52 27.1133 30.2617C26.7383 27.4705 26.1022 24.7206 25.2133 22.0483C24.9799 21.3483 25.2299 20.5783 25.8433 20.13C27.8495 18.66 29.7487 17.0493 31.5266 15.31C32.4433 14.4133 31.9599 12.9433 30.6683 12.7167C28.3184 12.3054 25.9414 12.0686 23.5566 12.0083C23.1795 12.0023 22.8135 11.8802 22.5084 11.6586C22.2033 11.437 21.9739 11.1267 21.8516 10.77C20.9661 8.02112 19.818 5.3622 18.4233 2.83333Z" stroke="white" stroke-width="2.5" stroke-linecap="round" stroke-linejoin="round"/>
</svg>
