<svg width="60" height="40" viewBox="0 0 60 40" fill="none" xmlns="http://www.w3.org/2000/svg">
<g clip-path="url(#clip0_136_83)">
<path d="M56 40H4C2.93913 40 1.92172 39.5786 1.17157 38.8284C0.421427 38.0783 0 37.0609 0 36L0 4C0 2.93913 0.421427 1.92172 1.17157 1.17157C1.92172 0.421427 2.93913 0 4 0L56 0C57.0609 0 58.0783 0.421427 58.8284 1.17157C59.5786 1.92172 60 2.93913 60 4V36C60 37.0609 59.5786 38.0783 58.8284 38.8284C58.0783 39.5786 57.0609 40 56 40ZM29.7333 24.6033L29.135 28.3533C30.6635 28.999 32.3152 29.3011 33.9733 29.2383H33.955C35.8978 29.3513 37.8217 28.8032 39.4133 27.6833L39.385 27.7017C40.0343 27.2236 40.5623 26.5998 40.9264 25.8805C41.2906 25.1611 41.4808 24.3663 41.4817 23.56V23.535C41.4817 21.7017 40.255 20.18 37.8367 19.0033C37.177 18.6845 36.5458 18.3098 35.95 17.8833L35.9883 17.91C35.8216 17.8027 35.6828 17.6572 35.5834 17.4857C35.484 17.3141 35.4269 17.1213 35.4167 16.9233V16.92C35.4297 16.7137 35.4944 16.5141 35.6048 16.3393C35.7152 16.1646 35.8677 16.0204 36.0483 15.92L36.055 15.9167C36.6143 15.5935 37.2572 15.4444 37.9017 15.4883H37.8917H38.025L38.1533 15.4867C39.2267 15.4867 40.245 15.7183 41.1633 16.1333L41.1167 16.115L41.5067 16.3233L42.105 12.705C40.8954 12.2343 39.6079 11.9957 38.31 12.0017H38.2283H38.2333C36.3555 11.9198 34.504 12.4664 32.9717 13.555L32.9983 13.5367C32.3613 13.9859 31.8416 14.5817 31.4828 15.2737C31.124 15.9657 30.9367 16.7338 30.9367 17.5133V17.5217C30.92 19.285 32.19 20.8083 34.7133 22.055C35.38 22.3467 35.955 22.7033 36.47 23.1317L36.4583 23.1217C36.6066 23.247 36.7272 23.4018 36.8124 23.5763C36.8976 23.7507 36.9456 23.941 36.9533 24.135V24.1417C36.9533 24.6733 36.6367 25.13 36.18 25.335L36.1717 25.3383C35.6717 25.6017 35.0783 25.755 34.4483 25.755H34.3717H34.375H34.25C32.8217 25.755 31.4683 25.4383 30.255 24.8717L30.3133 24.8967L29.7417 24.61L29.7333 24.6033ZM46.6083 26.505H52.1333C52.2222 26.8861 52.3961 27.7194 52.655 29.005H56.6667L53.1767 12.2867H49.8433C49.3666 12.2433 48.8887 12.3555 48.481 12.6063C48.0734 12.8572 47.7579 13.2333 47.5817 13.6783L47.5767 13.6933L41.1767 29.005H45.71L46.62 26.5067L46.6083 26.505ZM24.8183 12.2867L22.1083 29.005H26.4317L29.14 12.2867H24.8183ZM8.20333 15.6983L11.72 28.9783H16.2767L23.0683 12.2867H18.4917L14.2683 23.6933L13.825 21.375L12.3183 13.6933C12.2383 13.2499 11.9888 12.855 11.6226 12.5924C11.2564 12.3298 10.8023 12.2202 10.3567 12.2867L10.3667 12.285H3.38833L3.33667 12.6233C8.71 13.9883 12.24 16.9333 13.83 21.3733C13.3432 20.1037 12.5896 18.9533 11.62 18L11.6183 17.9983C10.6674 17.0218 9.5299 16.2464 8.27333 15.7183L8.20667 15.6933L8.20333 15.6983ZM51.4317 23.0667H47.8317C48.075 22.4244 48.6483 20.8689 49.5517 18.4L49.6283 18.165L49.895 17.4883C50.0028 17.2106 50.0806 16.985 50.1283 16.8117L50.4417 18.2433L51.43 23.06L51.4317 23.0667Z" fill="black"/>
</g>
<defs>
<clipPath id="clip0_136_83">
<rect width="60" height="40" fill="white"/>
</clipPath>
</defs>
</svg>
