<svg width="73" height="73" viewBox="0 0 73 73" fill="none" xmlns="http://www.w3.org/2000/svg">
<path d="M72.8438 36.8146C72.8438 56.6968 56.726 72.8146 36.8438 72.8146C16.9615 72.8146 0.84375 56.6968 0.84375 36.8146C0.84375 16.9323 16.9615 0.814575 36.8438 0.814575C56.726 0.814575 72.8438 16.9323 72.8438 36.8146ZM7.39972 36.8146C7.39972 53.0761 20.5823 66.2586 36.8438 66.2586C53.1052 66.2586 66.2878 53.0761 66.2878 36.8146C66.2878 20.5531 53.1052 7.37055 36.8438 7.37055C20.5823 7.37055 7.39972 20.5531 7.39972 36.8146Z" fill="white"/>
<path d="M22.9441 53.8672V21.8935H29.8051V34.9716L42.9498 21.8935H51.4095L39.5748 33.6394L52.2533 53.8672H44.3487L34.8454 38.3244L29.8051 43.3425V53.8672H22.9441Z" fill="white"/>
</svg>
