<svg width="104" height="84" viewBox="0 0 104 84" fill="none" xmlns="http://www.w3.org/2000/svg">
<path d="M2 24.855C2 14.08 2 8.695 4.93 5.345C7.86 1.995 12.57 2 22 2H82C91.43 2 96.14 2 99.07 5.35C102 8.69 102 14.075 102 24.85V59.14C102 69.915 102 75.3 99.07 78.65C96.14 82 91.43 82 82 82H22C12.57 82 7.86 82 4.93 78.65C2 75.31 2 69.925 2 59.15V24.855Z" stroke="#F8F8F8" stroke-width="2.5" stroke-linecap="round" stroke-linejoin="round"/>
<path d="M52 52C57.5228 52 62 47.5228 62 42C62 36.4772 57.5228 32 52 32C46.4772 32 42 36.4772 42 42C42 47.5228 46.4772 52 52 52Z" stroke="#F8F8F8" stroke-width="2.5" stroke-linecap="round" stroke-linejoin="round"/>
<path d="M52 32V7M52 52V77M102 27H89.5C88.1739 27 86.9021 27.5268 85.9645 28.4645C85.0268 29.4021 84.5 30.6739 84.5 32V52C84.5 53.3261 85.0268 54.5978 85.9645 55.5355C86.9021 56.4732 88.1739 57 89.5 57H102M2 27H14.5C15.8261 27 17.0979 27.5268 18.0355 28.4645C18.9732 29.4021 19.5 30.6739 19.5 32V52C19.5 53.3261 18.9732 54.5978 18.0355 55.5355C17.0979 56.4732 15.8261 57 14.5 57H2" stroke="#F8F8F8" stroke-width="2.5" stroke-linecap="round" stroke-linejoin="round"/>
</svg>
