<svg width="96" height="96" viewBox="0 0 96 96" fill="none" xmlns="http://www.w3.org/2000/svg">
<path d="M89.25 78.88H6.75C3.98858 78.88 1.75 81.1186 1.75 83.88V88.88C1.75 91.6414 3.98858 93.88 6.75 93.88H89.25C92.0114 93.88 94.25 91.6414 94.25 88.88V83.88C94.25 81.1186 92.0114 78.88 89.25 78.88Z" stroke="#F8F8F8" stroke-width="2.5" stroke-linecap="round" stroke-linejoin="round"/>
<path d="M14.25 36.37V78.92M81.75 36.37V78.92M60.5 36.37V78.92M35.5 36.37V78.92M43.2 2.75002L4.35 24C3.56317 24.4305 2.90662 25.0648 2.44918 25.8363C1.99174 26.6078 1.75024 27.4881 1.75 28.385V33.37C1.75 34.1657 2.06607 34.9287 2.62868 35.4913C3.19129 36.0539 3.95435 36.37 4.75 36.37H91.25C92.0456 36.37 92.8087 36.0539 93.3713 35.4913C93.9339 34.9287 94.25 34.1657 94.25 33.37V28.385C94.2498 27.4881 94.0083 26.6078 93.5508 25.8363C93.0934 25.0648 92.4368 24.4305 91.65 24L52.8 2.75002C51.3283 1.94476 49.6776 1.52271 48 1.52271C46.3224 1.52271 44.6717 1.94476 43.2 2.75002Z" stroke="#F8F8F8" stroke-width="2.5" stroke-linecap="round" stroke-linejoin="round"/>
</svg>
