<svg width="96" height="86" viewBox="0 0 96 86" fill="none" xmlns="http://www.w3.org/2000/svg">
<path d="M75.5 56.75V29.25C75.5 16.2883 75.5 9.80292 71.4712 5.77875C67.4471 1.75 60.9617 1.75 48 1.75H29.6667C16.705 1.75 10.2196 1.75 6.19541 5.77875C2.16666 9.80292 2.16666 16.2883 2.16666 29.25V56.75C2.16666 69.7117 2.16666 76.1971 6.19541 80.2213C10.2196 84.25 16.705 84.25 29.6667 84.25H84.6667M20.5 24.6667H57.1667M20.5 43H57.1667M20.5 61.3333H38.8333" stroke="#F8F8F8" stroke-width="2.5" stroke-linecap="round" stroke-linejoin="round"/>
<path d="M75.5 24.6667H80.0833C86.5642 24.6667 89.8046 24.6667 91.8167 26.6834C93.8333 28.6954 93.8333 31.9359 93.8333 38.4167V75.0834C93.8333 77.5145 92.8676 79.8461 91.1485 81.5652C89.4294 83.2842 87.0978 84.25 84.6667 84.25C82.2355 84.25 79.9039 83.2842 78.1849 81.5652C76.4658 79.8461 75.5 77.5145 75.5 75.0834V24.6667Z" stroke="#F8F8F8" stroke-width="2.5" stroke-linecap="round" stroke-linejoin="round"/>
</svg>
