<svg width="36" height="36" viewBox="0 0 36 36" fill="none" xmlns="http://www.w3.org/2000/svg">
<path d="M17.9999 1.33331C8.79492 1.33331 1.33325 8.79498 1.33325 18C1.33325 27.205 8.79492 34.6666 17.9999 34.6666C27.2049 34.6666 34.6666 27.205 34.6666 18C34.6666 8.79498 27.2049 1.33331 17.9999 1.33331Z" stroke="black" stroke-width="2.5" stroke-linecap="round" stroke-linejoin="round"/>
<path d="M5.11816 28.5767C5.11816 28.5767 8.83316 23.8333 17.9998 23.8333C27.1665 23.8333 30.8832 28.5767 30.8832 28.5767M17.9998 18C19.3259 18 20.5977 17.4732 21.5354 16.5355C22.473 15.5979 22.9998 14.3261 22.9998 13C22.9998 11.6739 22.473 10.4021 21.5354 9.46447C20.5977 8.52678 19.3259 8 17.9998 8C16.6737 8 15.402 8.52678 14.4643 9.46447C13.5266 10.4021 12.9998 11.6739 12.9998 13C12.9998 14.3261 13.5266 15.5979 14.4643 16.5355C15.402 17.4732 16.6737 18 17.9998 18Z" stroke="black" stroke-width="2.5" stroke-linecap="round" stroke-linejoin="round"/>
</svg>
