<svg width="315" height="320" viewBox="0 0 315 320" fill="none" xmlns="http://www.w3.org/2000/svg">
<g clip-path="url(#clip0_286_58)">
<path d="M105 48.3635H41.3636V57.4544H105V48.3635Z" fill="white"/>
<path d="M132.273 48.3635H123.182V57.4544H132.273V48.3635Z" fill="white"/>
<path d="M177.727 48.3635H168.636V57.4544H177.727V48.3635Z" fill="white"/>
<path d="M195.909 48.3635H186.818V57.4544H195.909V48.3635Z" fill="white"/>
<path d="M268.636 48.3635H205V57.4544H268.636V48.3635Z" fill="white"/>
<path d="M50.4546 57.4543H41.3636V66.5453H50.4546V57.4543Z" fill="white"/>
<path d="M105 57.4543H95.9091V66.5453H105V57.4543Z" fill="white"/>
<path d="M141.364 57.4543H123.182V66.5453H141.364V57.4543Z" fill="white"/>
<path d="M177.727 57.4543H150.455V66.5453H177.727V57.4543Z" fill="white"/>
<path d="M214.091 57.4543H205V66.5453H214.091V57.4543Z" fill="white"/>
<path d="M268.636 57.4543H259.546V66.5453H268.636V57.4543Z" fill="white"/>
<path d="M50.4546 66.5454H41.3636V75.6363H50.4546V66.5454Z" fill="white"/>
<path d="M86.8181 66.5454H59.5454V75.6363H86.8181V66.5454Z" fill="white"/>
<path d="M105 66.5454H95.9091V75.6363H105V66.5454Z" fill="white"/>
<path d="M132.273 66.5454H123.182V75.6363H132.273V66.5454Z" fill="white"/>
<path d="M150.455 66.5454H141.364V75.6363H150.455V66.5454Z" fill="white"/>
<path d="M177.727 66.5454H168.636V75.6363H177.727V66.5454Z" fill="white"/>
<path d="M195.909 66.5454H186.818V75.6363H195.909V66.5454Z" fill="white"/>
<path d="M214.091 66.5454H205V75.6363H214.091V66.5454Z" fill="white"/>
<path d="M250.455 66.5454H223.182V75.6363H250.455V66.5454Z" fill="white"/>
<path d="M268.636 66.5454H259.546V75.6363H268.636V66.5454Z" fill="white"/>
<path d="M50.4546 75.6362H41.3636V84.7271H50.4546V75.6362Z" fill="white"/>
<path d="M86.8181 75.6362H59.5454V84.7271H86.8181V75.6362Z" fill="white"/>
<path d="M105 75.6362H95.9091V84.7271H105V75.6362Z" fill="white"/>
<path d="M123.182 75.6362H114.091V84.7271H123.182V75.6362Z" fill="white"/>
<path d="M159.545 75.6362H141.364V84.7271H159.545V75.6362Z" fill="white"/>
<path d="M195.909 75.6362H177.727V84.7271H195.909V75.6362Z" fill="white"/>
<path d="M214.091 75.6362H205V84.7271H214.091V75.6362Z" fill="white"/>
<path d="M250.455 75.6362H223.182V84.7271H250.455V75.6362Z" fill="white"/>
<path d="M268.636 75.6362H259.546V84.7271H268.636V75.6362Z" fill="white"/>
<path d="M50.4546 84.7271H41.3636V93.818H50.4546V84.7271Z" fill="white"/>
<path d="M86.8181 84.7271H59.5454V93.818H86.8181V84.7271Z" fill="white"/>
<path d="M105 84.7271H95.9091V93.818H105V84.7271Z" fill="white"/>
<path d="M123.182 84.7271H114.091V93.818H123.182V84.7271Z" fill="white"/>
<path d="M141.364 84.7271H132.273V93.818H141.364V84.7271Z" fill="white"/>
<path d="M168.636 84.7271H159.545V93.818H168.636V84.7271Z" fill="white"/>
<path d="M195.909 84.7271H186.818V93.818H195.909V84.7271Z" fill="white"/>
<path d="M214.091 84.7271H205V93.818H214.091V84.7271Z" fill="white"/>
<path d="M250.455 84.7271H223.182V93.818H250.455V84.7271Z" fill="white"/>
<path d="M268.636 84.7271H259.546V93.818H268.636V84.7271Z" fill="white"/>
<path d="M50.4546 93.8181H41.3636V102.909H50.4546V93.8181Z" fill="white"/>
<path d="M105 93.8181H95.9091V102.909H105V93.8181Z" fill="white"/>
<path d="M177.727 93.8181H150.455V102.909H177.727V93.8181Z" fill="white"/>
<path d="M195.909 93.8181H186.818V102.909H195.909V93.8181Z" fill="white"/>
<path d="M214.091 93.8181H205V102.909H214.091V93.8181Z" fill="white"/>
<path d="M268.636 93.8181H259.546V102.909H268.636V93.8181Z" fill="white"/>
<path d="M105 102.909H41.3636V112H105V102.909Z" fill="white"/>
<path d="M123.182 102.909H114.091V112H123.182V102.909Z" fill="white"/>
<path d="M141.364 102.909H132.273V112H141.364V102.909Z" fill="white"/>
<path d="M159.545 102.909H150.455V112H159.545V102.909Z" fill="white"/>
<path d="M177.727 102.909H168.636V112H177.727V102.909Z" fill="white"/>
<path d="M195.909 102.909H186.818V112H195.909V102.909Z" fill="white"/>
<path d="M268.636 102.909H205V112H268.636V102.909Z" fill="white"/>
<path d="M141.364 112H132.273V121.091H141.364V112Z" fill="white"/>
<path d="M177.727 112H168.636V121.091H177.727V112Z" fill="white"/>
<path d="M195.909 112H186.818V121.091H195.909V112Z" fill="white"/>
<path d="M59.5455 121.091H41.3636V130.182H59.5455V121.091Z" fill="white"/>
<path d="M114.091 121.091H86.8182V130.182H114.091V121.091Z" fill="white"/>
<path d="M132.273 121.091H123.182V130.182H132.273V121.091Z" fill="white"/>
<path d="M195.909 121.091H141.364V130.182H195.909V121.091Z" fill="white"/>
<path d="M241.364 121.091H223.182V130.182H241.364V121.091Z" fill="white"/>
<path d="M59.5455 130.182H41.3636V139.273H59.5455V130.182Z" fill="white"/>
<path d="M77.7273 130.182H68.6364V139.273H77.7273V130.182Z" fill="white"/>
<path d="M150.455 130.182H105V139.273H150.455V130.182Z" fill="white"/>
<path d="M168.636 130.182H159.545V139.273H168.636V130.182Z" fill="white"/>
<path d="M186.818 130.182H177.727V139.273H186.818V130.182Z" fill="white"/>
<path d="M259.545 130.182H214.091V139.273H259.545V130.182Z" fill="white"/>
<path d="M68.6363 139.273H59.5454V148.364H68.6363V139.273Z" fill="white"/>
<path d="M114.091 139.273H77.7273V148.364H114.091V139.273Z" fill="white"/>
<path d="M141.364 139.273H132.273V148.364H141.364V139.273Z" fill="white"/>
<path d="M159.545 139.273H150.455V148.364H159.545V139.273Z" fill="white"/>
<path d="M186.818 139.273H177.727V148.364H186.818V139.273Z" fill="white"/>
<path d="M241.364 139.273H195.909V148.364H241.364V139.273Z" fill="white"/>
<path d="M268.636 139.273H250.455V148.364H268.636V139.273Z" fill="white"/>
<path d="M59.5455 148.364H50.4546V157.454H59.5455V148.364Z" fill="white"/>
<path d="M77.7273 148.364H68.6364V157.454H77.7273V148.364Z" fill="white"/>
<path d="M95.9091 148.364H86.8182V157.454H95.9091V148.364Z" fill="white"/>
<path d="M114.091 148.364H105V157.454H114.091V148.364Z" fill="white"/>
<path d="M132.273 148.364H123.182V157.454H132.273V148.364Z" fill="white"/>
<path d="M159.545 148.364H150.455V157.454H159.545V148.364Z" fill="white"/>
<path d="M186.818 148.364H177.727V157.454H186.818V148.364Z" fill="white"/>
<path d="M223.182 148.364H195.909V157.454H223.182V148.364Z" fill="white"/>
<path d="M241.364 148.364H232.273V157.454H241.364V148.364Z" fill="white"/>
<path d="M268.636 148.364H259.546V157.454H268.636V148.364Z" fill="white"/>
<path d="M86.8181 157.454H59.5454V166.545H86.8181V157.454Z" fill="white"/>
<path d="M105 157.454H95.9091V166.545H105V157.454Z" fill="white"/>
<path d="M132.273 157.454H114.091V166.545H132.273V157.454Z" fill="white"/>
<path d="M150.455 157.454H141.364V166.545H150.455V157.454Z" fill="white"/>
<path d="M186.818 157.454H177.727V166.545H186.818V157.454Z" fill="white"/>
<path d="M214.091 157.454H205V166.545H214.091V157.454Z" fill="white"/>
<path d="M268.636 157.454H259.546V166.545H268.636V157.454Z" fill="white"/>
<path d="M50.4546 166.545H41.3636V175.636H50.4546V166.545Z" fill="white"/>
<path d="M86.8182 166.545H68.6364V175.636H86.8182V166.545Z" fill="white"/>
<path d="M132.273 166.545H114.091V175.636H132.273V166.545Z" fill="white"/>
<path d="M168.636 166.545H159.545V175.636H168.636V166.545Z" fill="white"/>
<path d="M195.909 166.545H177.727V175.636H195.909V166.545Z" fill="white"/>
<path d="M223.182 166.545H214.091V175.636H223.182V166.545Z" fill="white"/>
<path d="M259.545 166.545H250.455V175.636H259.545V166.545Z" fill="white"/>
<path d="M50.4546 175.636H41.3636V184.727H50.4546V175.636Z" fill="white"/>
<path d="M68.6363 175.636H59.5454V184.727H68.6363V175.636Z" fill="white"/>
<path d="M105 175.636H86.8182V184.727H105V175.636Z" fill="white"/>
<path d="M132.273 175.636H114.091V184.727H132.273V175.636Z" fill="white"/>
<path d="M186.818 175.636H159.545V184.727H186.818V175.636Z" fill="white"/>
<path d="M241.364 175.636H205V184.727H241.364V175.636Z" fill="white"/>
<path d="M268.636 175.636H250.455V184.727H268.636V175.636Z" fill="white"/>
<path d="M50.4546 184.727H41.3636V193.818H50.4546V184.727Z" fill="white"/>
<path d="M150.455 184.727H123.182V193.818H150.455V184.727Z" fill="white"/>
<path d="M186.818 184.727H177.727V193.818H186.818V184.727Z" fill="white"/>
<path d="M223.182 184.727H214.091V193.818H223.182V184.727Z" fill="white"/>
<path d="M250.455 184.727H232.273V193.818H250.455V184.727Z" fill="white"/>
<path d="M268.636 184.727H259.546V193.818H268.636V184.727Z" fill="white"/>
<path d="M50.4546 193.818H41.3636V202.909H50.4546V193.818Z" fill="white"/>
<path d="M86.8182 193.818H77.7273V202.909H86.8182V193.818Z" fill="white"/>
<path d="M123.182 193.818H95.9091V202.909H123.182V193.818Z" fill="white"/>
<path d="M141.364 193.818H132.273V202.909H141.364V193.818Z" fill="white"/>
<path d="M177.727 193.818H150.455V202.909H177.727V193.818Z" fill="white"/>
<path d="M232.273 193.818H186.818V202.909H232.273V193.818Z" fill="white"/>
<path d="M250.455 193.818H241.364V202.909H250.455V193.818Z" fill="white"/>
<path d="M132.273 202.909H114.091V212H132.273V202.909Z" fill="white"/>
<path d="M168.636 202.909H159.545V212H168.636V202.909Z" fill="white"/>
<path d="M195.909 202.909H186.818V212H195.909V202.909Z" fill="white"/>
<path d="M232.273 202.909H223.182V212H232.273V202.909Z" fill="white"/>
<path d="M105 212H41.3636V221.091H105V212Z" fill="white"/>
<path d="M123.182 212H114.091V221.091H123.182V212Z" fill="white"/>
<path d="M159.545 212H141.364V221.091H159.545V212Z" fill="white"/>
<path d="M195.909 212H186.818V221.091H195.909V212Z" fill="white"/>
<path d="M214.091 212H205V221.091H214.091V212Z" fill="white"/>
<path d="M232.273 212H223.182V221.091H232.273V212Z" fill="white"/>
<path d="M268.636 212H259.546V221.091H268.636V212Z" fill="white"/>
<path d="M50.4546 221.091H41.3636V230.182H50.4546V221.091Z" fill="white"/>
<path d="M105 221.091H95.9091V230.182H105V221.091Z" fill="white"/>
<path d="M159.545 221.091H114.091V230.182H159.545V221.091Z" fill="white"/>
<path d="M177.727 221.091H168.636V230.182H177.727V221.091Z" fill="white"/>
<path d="M195.909 221.091H186.818V230.182H195.909V221.091Z" fill="white"/>
<path d="M232.273 221.091H223.182V230.182H232.273V221.091Z" fill="white"/>
<path d="M259.545 221.091H250.455V230.182H259.545V221.091Z" fill="white"/>
<path d="M50.4546 230.182H41.3636V239.273H50.4546V230.182Z" fill="white"/>
<path d="M86.8181 230.182H59.5454V239.273H86.8181V230.182Z" fill="white"/>
<path d="M105 230.182H95.9091V239.273H105V230.182Z" fill="white"/>
<path d="M150.455 230.182H132.273V239.273H150.455V230.182Z" fill="white"/>
<path d="M232.273 230.182H159.545V239.273H232.273V230.182Z" fill="white"/>
<path d="M259.545 230.182H241.364V239.273H259.545V230.182Z" fill="white"/>
<path d="M50.4546 239.273H41.3636V248.364H50.4546V239.273Z" fill="white"/>
<path d="M86.8181 239.273H59.5454V248.364H86.8181V239.273Z" fill="white"/>
<path d="M105 239.273H95.9091V248.364H105V239.273Z" fill="white"/>
<path d="M141.364 239.273H123.182V248.364H141.364V239.273Z" fill="white"/>
<path d="M177.727 239.273H168.636V248.364H177.727V239.273Z" fill="white"/>
<path d="M214.091 239.273H195.909V248.364H214.091V239.273Z" fill="white"/>
<path d="M268.636 239.273H250.455V248.364H268.636V239.273Z" fill="white"/>
<path d="M50.4546 248.364H41.3636V257.454H50.4546V248.364Z" fill="white"/>
<path d="M86.8181 248.364H59.5454V257.454H86.8181V248.364Z" fill="white"/>
<path d="M105 248.364H95.9091V257.454H105V248.364Z" fill="white"/>
<path d="M141.364 248.364H132.273V257.454H141.364V248.364Z" fill="white"/>
<path d="M159.545 248.364H150.455V257.454H159.545V248.364Z" fill="white"/>
<path d="M186.818 248.364H177.727V257.454H186.818V248.364Z" fill="white"/>
<path d="M205 248.364H195.909V257.454H205V248.364Z" fill="white"/>
<path d="M250.455 248.364H232.273V257.454H250.455V248.364Z" fill="white"/>
<path d="M268.636 248.364H259.546V257.454H268.636V248.364Z" fill="white"/>
<path d="M50.4546 257.454H41.3636V266.545H50.4546V257.454Z" fill="white"/>
<path d="M105 257.454H95.9091V266.545H105V257.454Z" fill="white"/>
<path d="M123.182 257.454H114.091V266.545H123.182V257.454Z" fill="white"/>
<path d="M159.545 257.454H150.455V266.545H159.545V257.454Z" fill="white"/>
<path d="M195.909 257.454H168.636V266.545H195.909V257.454Z" fill="white"/>
<path d="M232.273 257.454H214.091V266.545H232.273V257.454Z" fill="white"/>
<path d="M268.636 257.454H259.546V266.545H268.636V257.454Z" fill="white"/>
<path d="M105 266.545H41.3636V275.636H105V266.545Z" fill="white"/>
<path d="M123.182 266.545H114.091V275.636H123.182V266.545Z" fill="white"/>
<path d="M141.364 266.545H132.273V275.636H141.364V266.545Z" fill="white"/>
<path d="M214.091 266.545H186.818V275.636H214.091V266.545Z" fill="white"/>
<path d="M241.364 266.545H232.273V275.636H241.364V266.545Z" fill="white"/>
<path d="M268.636 266.545H259.546V275.636H268.636V266.545Z" fill="white"/>
</g>
<path d="M270 317.5H297C305.284 317.5 312 310.784 312 302.5V273" stroke="white" stroke-width="5"/>
<path d="M45 317.5H18C9.71573 317.5 3 310.784 3 302.5V273" stroke="white" stroke-width="5"/>
<path d="M312.5 45V18C312.5 9.71573 305.784 3 297.5 3L268 3" stroke="white" stroke-width="5"/>
<path d="M45 3L18 3C9.71573 3 3 9.71573 3 18L3 47.5" stroke="white" stroke-width="5"/>
<defs>
<clipPath id="clip0_286_58">
<rect width="300" height="300" fill="white" transform="translate(5 12)"/>
</clipPath>
</defs>
</svg>
