<svg width="76" height="76" viewBox="0 0 76 76" fill="none" xmlns="http://www.w3.org/2000/svg">
<path d="M75.8438 38.3146C75.8438 59.0253 59.0544 75.8146 38.3438 75.8146C17.6331 75.8146 0.84375 59.0253 0.84375 38.3146C0.84375 17.6039 17.6331 0.814575 38.3438 0.814575C59.0544 0.814575 75.8438 17.6039 75.8438 38.3146ZM7.67289 38.3146C7.67289 55.2536 21.4047 68.9854 38.3438 68.9854C55.2828 68.9854 69.0146 55.2536 69.0146 38.3146C69.0146 21.3755 55.2828 7.64371 38.3438 7.64371C21.4047 7.64371 7.67289 21.3755 7.67289 38.3146Z" fill="#FF0000"/>
<path d="M23.8649 56.0777V22.7718H31.0118V36.3949L44.7043 22.7718H53.5164L41.1886 35.0071L54.3954 56.0777H46.1614L36.2621 39.8874L31.0118 45.1145V56.0777H23.8649Z" fill="#FF0000"/>
</svg>
