<svg width="40" height="36" viewBox="0 0 40 36" fill="none" xmlns="http://www.w3.org/2000/svg">
<path d="M37.6 9H28.8V8.25C28.8 6.06196 27.8729 3.96354 26.2225 2.41637C24.5722 0.869194 22.3339 0 20 0C17.6661 0 15.4278 0.869194 13.7775 2.41637C12.1271 3.96354 11.2 6.06196 11.2 8.25V9H2.4C1.76348 9 1.15303 9.23705 0.702944 9.65901C0.252856 10.081 0 10.6533 0 11.25V33.75C0 34.3467 0.252856 34.919 0.702944 35.341C1.15303 35.7629 1.76348 36 2.4 36H37.6C38.2365 36 38.847 35.7629 39.2971 35.341C39.7471 34.919 40 34.3467 40 33.75V11.25C40 10.6533 39.7471 10.081 39.2971 9.65901C38.847 9.23705 38.2365 9 37.6 9ZM12.8 8.25C12.8 6.45979 13.5586 4.7429 14.9088 3.47703C16.2591 2.21116 18.0904 1.5 20 1.5C21.9096 1.5 23.7409 2.21116 25.0912 3.47703C26.4414 4.7429 27.2 6.45979 27.2 8.25V9H12.8V8.25ZM38.4 33.75C38.4 33.9489 38.3157 34.1397 38.1657 34.2803C38.0157 34.421 37.8122 34.5 37.6 34.5H2.4C2.18783 34.5 1.98434 34.421 1.83431 34.2803C1.68429 34.1397 1.6 33.9489 1.6 33.75V11.25C1.6 11.0511 1.68429 10.8603 1.83431 10.7197C1.98434 10.579 2.18783 10.5 2.4 10.5H11.2V14.25C11.2 14.4489 11.2843 14.6397 11.4343 14.7803C11.5843 14.921 11.7878 15 12 15C12.2122 15 12.4157 14.921 12.5657 14.7803C12.7157 14.6397 12.8 14.4489 12.8 14.25V10.5H27.2V14.25C27.2 14.4489 27.2843 14.6397 27.4343 14.7803C27.5843 14.921 27.7878 15 28 15C28.2122 15 28.4157 14.921 28.5657 14.7803C28.7157 14.6397 28.8 14.4489 28.8 14.25V10.5H37.6C37.8122 10.5 38.0157 10.579 38.1657 10.7197C38.3157 10.8603 38.4 11.0511 38.4 11.25V33.75Z" fill="black"/>
</svg>
