<svg width="94" height="91" viewBox="0 0 94 91" fill="none" xmlns="http://www.w3.org/2000/svg">
<path d="M88.25 22.875H67.625V21C67.625 15.5299 65.452 10.2839 61.5841 6.41592C57.7161 2.54799 52.4701 0.375 47 0.375C41.5299 0.375 36.2839 2.54799 32.4159 6.41592C28.548 10.2839 26.375 15.5299 26.375 21V22.875H5.75C4.25816 22.875 2.82742 23.4676 1.77252 24.5225C0.717632 25.5774 0.125 27.0082 0.125 28.5V84.75C0.125 86.2418 0.717632 87.6726 1.77252 88.7275C2.82742 89.7824 4.25816 90.375 5.75 90.375H88.25C89.7418 90.375 91.1726 89.7824 92.2275 88.7275C93.2824 87.6726 93.875 86.2418 93.875 84.75V28.5C93.875 27.0082 93.2824 25.5774 92.2275 24.5225C91.1726 23.4676 89.7418 22.875 88.25 22.875ZM30.125 21C30.125 16.5245 31.9029 12.2322 35.0676 9.06757C38.2323 5.9029 42.5245 4.125 47 4.125C51.4755 4.125 55.7677 5.9029 58.9324 9.06757C62.0971 12.2322 63.875 16.5245 63.875 21V22.875H30.125V21ZM90.125 84.75C90.125 85.2473 89.9275 85.7242 89.5758 86.0758C89.2242 86.4275 88.7473 86.625 88.25 86.625H5.75C5.25272 86.625 4.77581 86.4275 4.42418 86.0758C4.07254 85.7242 3.875 85.2473 3.875 84.75V28.5C3.875 28.0027 4.07254 27.5258 4.42418 27.1742C4.77581 26.8225 5.25272 26.625 5.75 26.625H26.375V36C26.375 36.4973 26.5725 36.9742 26.9242 37.3258C27.2758 37.6775 27.7527 37.875 28.25 37.875C28.7473 37.875 29.2242 37.6775 29.5758 37.3258C29.9275 36.9742 30.125 36.4973 30.125 36V26.625H63.875V36C63.875 36.4973 64.0725 36.9742 64.4242 37.3258C64.7758 37.6775 65.2527 37.875 65.75 37.875C66.2473 37.875 66.7242 37.6775 67.0758 37.3258C67.4275 36.9742 67.625 36.4973 67.625 36V26.625H88.25C88.7473 26.625 89.2242 26.8225 89.5758 27.1742C89.9275 27.5258 90.125 28.0027 90.125 28.5V84.75Z" fill="#F8F8F8"/>
</svg>
