<svg width="45" height="36" viewBox="0 0 45 36" fill="none" xmlns="http://www.w3.org/2000/svg">
<path d="M14.5547 18.1719C14.5547 19.125 13.7969 19.8516 12.8359 19.8516C12.1172 19.8516 11.5859 19.4453 11.5859 18.6797C11.5859 17.7266 12.3281 16.9609 13.2812 16.9609C14.0078 16.9609 14.5547 17.4062 14.5547 18.1719ZM6.28906 14.3828H5.92188C5.80469 14.3828 5.6875 14.4609 5.67188 14.5938L5.33594 16.6797L5.97656 16.6562C6.83594 16.6562 7.5 16.5391 7.65625 15.5469C7.83594 14.5 7.17188 14.3828 6.28906 14.3828ZM28.4766 14.3828H28.125C27.9844 14.3828 27.8906 14.4609 27.875 14.5938L27.5469 16.6797L28.1719 16.6562C29.1875 16.6562 29.8906 16.4219 29.8906 15.25C29.8828 14.4219 29.1406 14.3828 28.4766 14.3828ZM45 4.25V31.75C45 33.8203 43.3203 35.5 41.25 35.5H3.75C1.67969 35.5 0 33.8203 0 31.75V4.25C0 2.17969 1.67969 0.5 3.75 0.5H41.25C43.3203 0.5 45 2.17969 45 4.25ZM10.0234 14.8281C10.0234 13.1875 8.75781 12.6406 7.3125 12.6406H4.1875C3.99219 12.6406 3.79688 12.7969 3.78125 13.0078L2.5 20.9844C2.47656 21.1406 2.59375 21.2969 2.75 21.2969H4.23438C4.44531 21.2969 4.64062 21.0703 4.66406 20.8516L5.01562 18.7734C5.09375 18.2109 6.04687 18.4062 6.42188 18.4062C8.65625 18.4062 10.0234 17.0781 10.0234 14.8281ZM16.6016 15.5156H15.1172C14.8203 15.5156 14.8047 15.9453 14.7891 16.1562C14.3359 15.4922 13.6797 15.375 12.9375 15.375C11.0234 15.375 9.5625 17.0547 9.5625 18.9062C9.5625 20.4297 10.5156 21.4219 12.0391 21.4219C12.7422 21.4219 13.6172 21.0391 14.1094 20.4922C14.0703 20.6094 14.0312 20.8594 14.0312 20.9766C14.0312 21.1562 14.1094 21.2891 14.2812 21.2891H15.625C15.8359 21.2891 16.0156 21.0625 16.0547 20.8438L16.8516 15.8203C16.875 15.6719 16.7578 15.5156 16.6016 15.5156ZM19.7656 23.1641L24.7422 15.9297C24.7812 15.8906 24.7812 15.8516 24.7812 15.7969C24.7812 15.6641 24.6641 15.5234 24.5312 15.5234H23.0312C22.8984 15.5234 22.7578 15.6016 22.6797 15.7188L20.6094 18.7656L19.75 15.8359C19.6875 15.6641 19.5156 15.5234 19.3203 15.5234H17.8594C17.7266 15.5234 17.6094 15.6641 17.6094 15.7969C17.6094 15.8906 19.1328 20.2344 19.2656 20.6484C19.0547 20.9453 17.6641 22.8828 17.6641 23.1172C17.6641 23.2578 17.7812 23.3672 17.9141 23.3672H19.4141C19.5547 23.3594 19.6875 23.2812 19.7656 23.1641ZM32.2109 14.8281C32.2109 13.1875 30.9453 12.6406 29.5 12.6406H26.3984C26.1875 12.6406 25.9922 12.7969 25.9688 13.0078L24.7031 20.9766C24.6875 21.1328 24.8047 21.2891 24.9531 21.2891H26.5547C26.7109 21.2891 26.8281 21.1719 26.8672 21.0391L27.2188 18.7734C27.2969 18.2109 28.25 18.4062 28.625 18.4062C30.8438 18.4062 32.2109 17.0781 32.2109 14.8281ZM38.7891 15.5156H37.3047C37.0078 15.5156 36.9922 15.9453 36.9688 16.1562C36.5391 15.4922 35.875 15.375 35.1172 15.375C33.2031 15.375 31.7422 17.0547 31.7422 18.9062C31.7422 20.4297 32.6953 21.4219 34.2188 21.4219C34.9453 21.4219 35.8203 21.0391 36.2891 20.4922C36.2656 20.6094 36.2109 20.8594 36.2109 20.9766C36.2109 21.1562 36.2891 21.2891 36.4609 21.2891H37.8125C38.0234 21.2891 38.2031 21.0625 38.2422 20.8438L39.0391 15.8203C39.0625 15.6719 38.9453 15.5156 38.7891 15.5156ZM42.5 12.9141C42.5 12.7578 42.3828 12.6406 42.25 12.6406H40.8047C40.6875 12.6406 40.5703 12.7344 40.5547 12.8516L39.2891 20.9766L39.2656 21.0156C39.2656 21.1562 39.3828 21.2891 39.5391 21.2891H40.8281C41.0234 21.2891 41.2188 21.0625 41.2344 20.8438L42.5 12.9375V12.9141ZM35.4688 16.9609C34.5156 16.9609 33.7734 17.7188 33.7734 18.6797C33.7734 19.4375 34.3203 19.8516 35.0391 19.8516C35.9766 19.8516 36.7344 19.1328 36.7344 18.1719C36.7422 17.4062 36.1953 16.9609 35.4688 16.9609Z" fill="black"/>
</svg>
