<svg width="43" height="30" viewBox="0 0 43 30" fill="none" xmlns="http://www.w3.org/2000/svg">
<path d="M33.6154 28.4949C33.6081 28.4947 33.6008 28.4945 33.5935 28.4943C33.5826 28.4941 33.5717 28.494 33.5608 28.494H9.27913C9.26093 28.494 9.24274 28.4943 9.22455 28.4949C5.12424 28.6442 1.675 25.4549 1.5 21.359V8.64104C1.675 4.54527 5.12425 1.35578 9.22456 1.50505C9.24274 1.50571 9.26093 1.50604 9.27913 1.50604H33.5608C33.579 1.50604 33.5972 1.50571 33.6154 1.50505C37.7157 1.35578 41.1649 4.54524 41.3399 8.64101V21.359C41.1649 25.4549 37.7157 28.6442 33.6154 28.4949Z" stroke="white" stroke-width="3" stroke-linecap="round" stroke-linejoin="round"/>
<path d="M19.5231 10.1896L26.2838 14.7837C26.2697 14.7934 26.2558 14.8034 26.242 14.8136L19.5053 19.8219C19.3202 19.9373 19.0473 19.9636 18.8044 19.8708C18.7136 19.8361 18.6609 19.7966 18.636 19.7733V10.2266C18.6617 10.2031 18.7145 10.1641 18.8045 10.1298C19.0578 10.0332 19.3405 10.0655 19.5231 10.1896C19.5231 10.1896 19.5231 10.1896 19.5231 10.1896Z" fill="white" stroke="white" stroke-width="3" stroke-linecap="round" stroke-linejoin="round"/>
</svg>
